<svg width="60" height="60" viewBox="0 0 60 60" fill="none" xmlns="http://www.w3.org/2000/svg">
<rect width="60" height="60" rx="24" fill="url(#paint0_linear_516_3444)"/>
<path fill-rule="evenodd" clip-rule="evenodd" d="M40.5571 11.8764L18.4777 16.5929L20.0301 23.9328L31.0698 21.5746L42.1095 19.2163L40.5571 11.8764ZM18.0896 14.7579C17.0812 14.9733 16.4375 15.9695 16.6518 16.9829L18.2042 24.3229C18.4185 25.3363 19.4098 25.9832 20.4182 25.7678L42.4976 21.0513C43.506 20.8359 44.1497 19.8397 43.9353 18.8263L42.3829 11.4863C42.1686 10.4729 41.1774 9.82597 40.169 10.0414L18.0896 14.7579Z" fill="white"/>
<path fill-rule="evenodd" clip-rule="evenodd" d="M40.5195 36.0944L18.5677 40.7837L20.1201 48.1236L42.0719 43.4344L40.5195 36.0944ZM18.1796 38.9487C17.1712 39.1641 16.5275 40.1603 16.7419 41.1737L18.2943 48.5137C18.5086 49.5271 19.4998 50.174 20.5082 49.9586L42.46 45.2693C43.4684 45.0539 44.1121 44.0578 43.8978 43.0443L42.3454 35.7044C42.131 34.6909 41.1398 34.044 40.1314 34.2594L18.1796 38.9487Z" fill="white"/>
<path d="M16 27.8659C16 26.8298 16.8357 25.9899 17.8667 25.9899H42.1333C43.1643 25.9899 44 26.8298 44 27.8659V32.0868C44 33.1229 43.1643 33.9628 42.1333 33.9628H17.8667C16.8357 33.9628 16 33.1229 16 32.0868V27.8659Z" fill="white"/>
<defs>
<linearGradient id="paint0_linear_516_3444" x1="50.7589" y1="6.99552" x2="4.8727" y2="55.4901" gradientUnits="userSpaceOnUse">
<stop stop-color="#2885FF"/>
<stop offset="1" stop-color="#0048FF"/>
</linearGradient>
</defs>
</svg>
